<mxfile host="65bd71144e">
    <diagram id="MdFG07NWi0iFyWOhgQug" name="Seite-1">
        <mxGraphModel dx="1734" dy="916" grid="1" gridSize="10" guides="1" tooltips="1" connect="1" arrows="1" fold="1" page="1" pageScale="1" pageWidth="827" pageHeight="1169" background="#ffffff" math="0" shadow="0">
            <root>
                <mxCell id="0"/>
                <mxCell id="1" parent="0"/>
                <mxCell id="40" value="&lt;br&gt;" style="shape=actor;whiteSpace=wrap;html=1;fontSize=16;fontColor=#0A0909;fillColor=#93E8F5;strokeColor=#006EAF;fontStyle=1;fontFamily=Helvetica;" parent="1" vertex="1">
                    <mxGeometry x="460" y="205" width="120" height="160" as="geometry"/>
                </mxCell>
                <mxCell id="14" value="" style="shape=partialRectangle;whiteSpace=wrap;html=1;bottom=1;right=1;left=1;top=0;fillColor=none;routingCenterX=-0.5;fontSize=16;fontColor=#0A0909;strokeWidth=8;strokeColor=#0A0909;fontStyle=1;fontFamily=Helvetica;sketch=1;curveFitting=1;jiggle=2;" parent="1" vertex="1">
                    <mxGeometry x="280" y="160" width="880" height="270" as="geometry"/>
                </mxCell>
                <mxCell id="34" style="edgeStyle=none;html=1;exitX=0;exitY=0.75;exitDx=0;exitDy=0;entryX=1;entryY=0.75;entryDx=0;entryDy=0;startArrow=none;startFill=0;endArrow=diamond;endFill=1;fontFamily=Helvetica;" parent="1" source="13" target="31" edge="1">
                    <mxGeometry relative="1" as="geometry"/>
                </mxCell>
                <mxCell id="13" value="&lt;br style=&quot;font-size: 16px&quot;&gt;&lt;br style=&quot;font-size: 16px&quot;&gt;&lt;br style=&quot;font-size: 16px&quot;&gt;Product &lt;br&gt;Owner" style="shape=actor;whiteSpace=wrap;html=1;fontSize=16;fontColor=#0A0909;fillColor=#6CFCDA;gradientColor=none;fontStyle=1;fontFamily=Helvetica;" parent="1" vertex="1">
                    <mxGeometry x="304" y="20" width="120" height="160" as="geometry"/>
                </mxCell>
                <mxCell id="23" value="Scrum Team&lt;br&gt;&lt;span style=&quot;font-weight: 400&quot;&gt;Cross-functional and with a client-side provided Product Owner&lt;/span&gt;" style="text;html=1;strokeColor=none;fillColor=none;align=left;verticalAlign=middle;whiteSpace=wrap;rounded=0;fontSize=24;fontColor=#0A0909;fontStyle=1;fontFamily=Helvetica;" parent="1" vertex="1">
                    <mxGeometry x="290" y="460" width="750" height="30" as="geometry"/>
                </mxCell>
                <mxCell id="30" value="&lt;br&gt;&lt;br&gt;&lt;br&gt;Scrum &lt;br&gt;Master" style="shape=actor;whiteSpace=wrap;html=1;fontSize=16;fontColor=#ffffff;fillColor=#1ba1e2;fontStyle=1;strokeColor=#006EAF;fontFamily=Helvetica;" parent="1" vertex="1">
                    <mxGeometry x="450" y="20" width="120" height="160" as="geometry"/>
                </mxCell>
                <mxCell id="31" value="&lt;br style=&quot;font-size: 16px&quot;&gt;&lt;br style=&quot;font-size: 16px&quot;&gt;Client" style="shape=actor;whiteSpace=wrap;html=1;fontSize=16;fontColor=#0A0909;fillColor=#ABFCEF;gradientColor=none;fontStyle=1;fontFamily=Helvetica;" parent="1" vertex="1">
                    <mxGeometry x="100" y="20" width="120" height="160" as="geometry"/>
                </mxCell>
                <mxCell id="33" value="&lt;br style=&quot;font-size: 16px&quot;&gt;&lt;br style=&quot;font-size: 16px&quot;&gt;Client" style="shape=actor;whiteSpace=wrap;html=1;fontSize=16;fontColor=#0A0909;fillColor=#51FCB2;gradientColor=none;fontStyle=1;fontFamily=Helvetica;" parent="1" vertex="1">
                    <mxGeometry x="50" y="20" width="120" height="160" as="geometry"/>
                </mxCell>
                <mxCell id="32" value="&lt;br style=&quot;font-size: 16px&quot;&gt;&lt;br style=&quot;font-size: 16px&quot;&gt;Client" style="shape=actor;whiteSpace=wrap;html=1;fontSize=16;fontColor=#ffffff;fillColor=#128A26;fontStyle=1;strokeColor=#005700;fontFamily=Helvetica;" parent="1" vertex="1">
                    <mxGeometry x="80" y="20" width="120" height="160" as="geometry"/>
                </mxCell>
                <mxCell id="39" value="" style="shape=actor;whiteSpace=wrap;html=1;fontSize=16;fontColor=#0A0909;fillColor=#60CDF5;strokeColor=#006EAF;fontStyle=1;fontFamily=Helvetica;" parent="1" vertex="1">
                    <mxGeometry x="450" y="215" width="120" height="160" as="geometry"/>
                </mxCell>
                <mxCell id="17" value="&lt;br style=&quot;font-size: 16px&quot;&gt;&lt;br style=&quot;font-size: 16px&quot;&gt;&lt;br style=&quot;font-size: 16px&quot;&gt;Designer" style="shape=actor;whiteSpace=wrap;html=1;fontSize=16;fontColor=#0A0909;fillColor=#1ba1e2;strokeColor=#006EAF;fontStyle=1;fontFamily=Helvetica;" parent="1" vertex="1">
                    <mxGeometry x="440" y="225" width="120" height="160" as="geometry"/>
                </mxCell>
                <mxCell id="42" value="&lt;br&gt;" style="shape=actor;whiteSpace=wrap;html=1;fontSize=16;fontColor=#0A0909;fillColor=#93E8F5;strokeColor=#006EAF;fontStyle=1;fontFamily=Helvetica;" parent="1" vertex="1">
                    <mxGeometry x="590" y="200" width="120" height="160" as="geometry"/>
                </mxCell>
                <mxCell id="44" value="&lt;br&gt;" style="shape=actor;whiteSpace=wrap;html=1;fontSize=16;fontColor=#0A0909;fillColor=#93E8F5;strokeColor=#006EAF;fontStyle=1;fontFamily=Helvetica;" parent="1" vertex="1">
                    <mxGeometry x="720" y="200" width="120" height="160" as="geometry"/>
                </mxCell>
                <mxCell id="46" value="&lt;br&gt;" style="shape=actor;whiteSpace=wrap;html=1;fontSize=16;fontColor=#0A0909;fillColor=#93E8F5;strokeColor=#006EAF;fontStyle=1;fontFamily=Helvetica;" parent="1" vertex="1">
                    <mxGeometry x="850" y="200" width="120" height="160" as="geometry"/>
                </mxCell>
                <mxCell id="41" value="" style="shape=actor;whiteSpace=wrap;html=1;fontSize=16;fontColor=#0A0909;fillColor=#60CDF5;strokeColor=#006EAF;fontStyle=1;fontFamily=Helvetica;" parent="1" vertex="1">
                    <mxGeometry x="580" y="210" width="120" height="160" as="geometry"/>
                </mxCell>
                <mxCell id="35" value="&lt;br style=&quot;font-size: 16px&quot;&gt;&lt;br style=&quot;font-size: 16px&quot;&gt;&lt;br style=&quot;font-size: 16px&quot;&gt;Developer" style="shape=actor;whiteSpace=wrap;html=1;fontSize=16;fontColor=#0A0909;fillColor=#1ba1e2;strokeColor=#006EAF;fontStyle=1;fontFamily=Helvetica;" parent="1" vertex="1">
                    <mxGeometry x="570" y="224" width="120" height="160" as="geometry"/>
                </mxCell>
                <mxCell id="43" value="" style="shape=actor;whiteSpace=wrap;html=1;fontSize=16;fontColor=#0A0909;fillColor=#60CDF5;strokeColor=#006EAF;fontStyle=1;fontFamily=Helvetica;" parent="1" vertex="1">
                    <mxGeometry x="710" y="210" width="120" height="160" as="geometry"/>
                </mxCell>
                <mxCell id="36" value="&lt;br style=&quot;font-size: 16px&quot;&gt;&lt;br style=&quot;font-size: 16px&quot;&gt;&lt;br style=&quot;font-size: 16px&quot;&gt;Concepter" style="shape=actor;whiteSpace=wrap;html=1;fontSize=16;fontColor=#0A0909;fillColor=#1ba1e2;strokeColor=#006EAF;fontStyle=1;fontFamily=Helvetica;" parent="1" vertex="1">
                    <mxGeometry x="700" y="224" width="120" height="160" as="geometry"/>
                </mxCell>
                <mxCell id="45" value="" style="shape=actor;whiteSpace=wrap;html=1;fontSize=16;fontColor=#0A0909;fillColor=#60CDF5;strokeColor=#006EAF;fontStyle=1;fontFamily=Helvetica;" parent="1" vertex="1">
                    <mxGeometry x="840" y="210" width="120" height="160" as="geometry"/>
                </mxCell>
                <mxCell id="37" value="&lt;br style=&quot;font-size: 16px&quot;&gt;&lt;br style=&quot;font-size: 16px&quot;&gt;&lt;br style=&quot;font-size: 16px&quot;&gt;Arcitect" style="shape=actor;whiteSpace=wrap;html=1;fontSize=16;fontColor=#0A0909;fillColor=#1ba1e2;strokeColor=#006EAF;fontStyle=1;fontFamily=Helvetica;" parent="1" vertex="1">
                    <mxGeometry x="830" y="224" width="120" height="160" as="geometry"/>
                </mxCell>
                <mxCell id="48" value="&lt;br&gt;" style="shape=actor;whiteSpace=wrap;html=1;fontSize=16;fontColor=#0A0909;fillColor=#93E8F5;strokeColor=#006EAF;fontStyle=1;fontFamily=Helvetica;" parent="1" vertex="1">
                    <mxGeometry x="980" y="200" width="120" height="160" as="geometry"/>
                </mxCell>
                <mxCell id="47" value="" style="shape=actor;whiteSpace=wrap;html=1;fontSize=16;fontColor=#0A0909;fillColor=#60CDF5;strokeColor=#006EAF;fontStyle=1;fontFamily=Helvetica;" parent="1" vertex="1">
                    <mxGeometry x="970" y="210" width="120" height="160" as="geometry"/>
                </mxCell>
                <mxCell id="38" value="&lt;br style=&quot;font-size: 16px&quot;&gt;&lt;br style=&quot;font-size: 16px&quot;&gt;&lt;br style=&quot;font-size: 16px&quot;&gt;..." style="shape=actor;whiteSpace=wrap;html=1;fontSize=16;fontColor=#0A0909;fillColor=#1ba1e2;strokeColor=#006EAF;fontStyle=1;fontFamily=Helvetica;" parent="1" vertex="1">
                    <mxGeometry x="960" y="224" width="120" height="160" as="geometry"/>
                </mxCell>
            </root>
        </mxGraphModel>
    </diagram>
</mxfile>